<?xml version="1.0" standalone="no"?>
<!DOCTYPE svg PUBLIC "-//W3C//DTD SVG 20010904//EN"
 "http://www.w3.org/TR/2001/REC-SVG-20010904/DTD/svg10.dtd">
<svg version="1.0" xmlns="http://www.w3.org/2000/svg"
 width="512.000000pt" height="512.000000pt" viewBox="0 0 512.000000 512.000000"
 preserveAspectRatio="xMidYMid meet">
<metadata>
Created by potrace 1.14, written by Peter Selinger 2001-2017
</metadata>
<g transform="translate(0.000000,512.000000) scale(0.100000,-0.100000)"
fill="#000000" stroke="none">
<path d="M0 4725 c0 -300 3 -395 12 -395 9 0 9 -3 0 -12 -7 -7 -12 -23 -12
-37 0 -19 3 -22 9 -12 5 8 7 20 4 28 -7 17 5 17 22 -1 11 -10 11 -16 2 -27
-10 -11 -9 -11 6 0 15 12 16 16 4 30 -16 18 -11 45 5 35 6 -4 8 -1 6 7 -3 8
-11 13 -17 11 -6 -1 -11 3 -11 9 0 6 8 8 18 5 13 -4 19 -1 19 10 0 10 -7 14
-18 11 -12 -3 -16 0 -12 9 3 9 11 10 30 3 20 -7 24 -7 20 5 -4 9 2 16 15 19
13 4 19 11 15 20 -3 8 0 20 6 26 8 8 8 11 -1 11 -7 0 -12 -5 -12 -12 0 -9 -3
-9 -11 -1 -8 8 -6 17 10 34 27 29 18 38 -11 13 l-23 -19 18 22 c11 12 16 27
12 32 -3 6 1 11 9 11 10 0 16 9 16 25 0 17 4 23 15 19 12 -5 12 0 5 27 -7 24
-6 40 4 60 10 20 11 29 2 32 -8 3 -8 8 1 18 11 11 13 11 13 -1 0 -7 3 -10 6
-7 4 4 1 13 -5 21 -8 10 -9 21 -3 33 5 10 7 24 4 32 -3 9 0 11 8 6 10 -6 12
-1 7 22 -3 17 -1 35 6 42 8 8 8 11 -2 11 -10 0 -10 4 -3 13 6 6 9 27 8 45 -2
23 2 31 11 28 19 -8 16 11 -5 24 -16 11 -16 11 2 6 13 -5 17 -2 13 9 -4 8 -2
17 4 21 6 3 9 16 7 27 -1 12 1 27 5 33 5 9 -26 12 -113 13 l-120 2 0 -396z
m110 -285 c0 -13 -11 -13 -30 0 -12 8 -11 10 8 10 12 0 22 -4 22 -10z"/>
<path d="M594 4970 c1 -95 -3 -150 -9 -150 -7 0 -7 -3 0 -8 6 -4 10 -47 10
-97 0 -49 4 -96 9 -102 5 -8 4 -13 -3 -13 -6 0 -11 -7 -11 -15 0 -8 3 -15 8
-15 4 0 8 -96 8 -213 1 -116 2 -221 3 -232 1 -11 -2 -60 -5 -110 -7 -100 -7
-92 0 -195 7 -99 7 -511 1 -675 -4 -71 -6 -136 -6 -142 1 -7 1 -34 2 -60 1
-27 -2 -136 -5 -243 -4 -107 -9 -276 -11 -375 -3 -99 -8 -268 -11 -375 -3
-107 -7 -276 -8 -375 -2 -99 -7 -218 -10 -264 -7 -86 -16 -589 -19 -1048 l-2
-263 53 0 52 0 1 73 c1 39 3 82 4 94 1 12 5 134 9 270 4 136 9 259 10 273 2
14 7 108 10 210 4 102 9 221 11 265 3 44 7 161 10 260 7 249 14 420 20 485 2
30 7 154 10 275 3 121 7 252 10 290 5 81 14 290 20 490 10 301 16 475 20 515
2 24 7 135 10 249 3 113 8 238 10 276 12 201 14 253 20 400 3 88 8 176 10 195
3 19 7 94 10 165 9 207 15 299 21 318 5 16 -6 17 -129 17 l-134 0 1 -150z"/>
<path d="M1010 5112 c0 -5 3 -12 8 -16 11 -11 9 -70 -3 -78 -6 -5 -6 -8 2 -8
7 0 9 -15 6 -46 -4 -36 -2 -45 9 -39 7 3 5 0 -6 -9 -10 -8 -16 -22 -13 -31 4
-8 2 -15 -4 -15 -6 0 -7 -6 -2 -12 4 -7 8 -24 9 -38 1 -13 6 -26 13 -28 6 -2
11 -19 11 -38 0 -20 5 -34 13 -34 9 0 9 -2 -1 -8 -13 -9 -12 -38 2 -61 5 -8 4
-16 -2 -20 -7 -4 -8 -12 -2 -20 4 -8 6 -20 3 -27 -2 -6 0 -15 5 -18 12 -7 3
-48 -12 -58 -7 -5 -6 -8 3 -8 11 0 11 -3 0 -16 -19 -23 -21 -50 -4 -64 8 -7
12 -16 9 -21 -8 -14 -14 -90 -6 -85 4 2 7 -8 6 -22 -1 -15 -7 -26 -13 -24 -7
1 -5 -8 5 -23 9 -14 12 -25 7 -25 -6 0 -8 -11 -5 -25 3 -19 0 -25 -13 -25 -13
0 -15 -4 -8 -12 6 -7 9 -29 8 -48 -1 -19 1 -40 6 -45 4 -6 6 -26 4 -45 -1 -19
4 -45 11 -57 9 -14 10 -24 4 -28 -6 -4 -7 -11 -3 -18 11 -17 10 -61 -1 -69 -6
-4 -6 -11 2 -20 13 -17 13 -98 0 -98 -7 0 -6 -5 0 -13 13 -15 5 -57 -10 -57
-7 0 -7 -5 -1 -12 5 -7 8 -24 7 -38 -1 -14 1 -29 5 -35 10 -17 9 -185 -2 -178
-6 4 -7 1 -1 -8 5 -8 9 -28 9 -44 1 -17 4 -36 9 -43 4 -7 2 -12 -3 -12 -6 0
-11 -9 -11 -21 0 -11 5 -17 10 -14 6 3 10 2 10 -4 0 -5 -5 -13 -12 -17 -7 -5
-5 -12 8 -22 18 -14 18 -14 -6 -9 -24 6 -24 5 -6 -8 11 -8 14 -15 8 -15 -7 0
-12 -5 -12 -11 0 -6 7 -9 15 -5 16 6 21 -9 6 -19 -5 -3 -9 -19 -9 -35 1 -16 5
-27 10 -24 4 3 8 1 8 -5 0 -5 -4 -13 -10 -16 -12 -7 -6 -65 7 -74 17 -11 23
-41 9 -41 -8 0 -16 6 -19 13 -3 6 -5 1 -4 -13 1 -26 23 -60 40 -60 5 0 7 7 4
15 -4 8 -2 17 2 20 13 8 23 -27 11 -39 -7 -7 -16 -7 -30 2 -30 19 -46 14 -24
-7 10 -10 24 -16 29 -13 6 3 2 -4 -7 -15 -20 -22 -24 -43 -8 -43 6 0 10 4 10
9 0 12 33 9 43 -4 5 -5 6 0 2 12 -3 12 -1 24 5 28 8 5 8 11 -1 21 -7 8 -7 14
-1 14 5 0 13 7 16 16 4 12 2 15 -9 10 -9 -3 -15 0 -15 10 0 10 6 14 15 10 13
-4 13 -2 5 14 -7 12 -7 21 0 25 7 4 6 13 -1 27 -9 17 -7 24 15 45 30 28 31 30
11 49 -8 9 -15 12 -15 8 0 -5 -5 -3 -12 4 -9 9 -9 15 1 25 11 10 13 10 7 0 -4
-8 -1 -13 8 -13 11 0 15 8 14 24 -2 17 -7 22 -18 18 -13 -5 -13 -3 -1 11 7 9
17 14 22 11 11 -7 11 -1 -1 30 -5 14 -7 33 -3 43 6 15 7 15 14 -3 7 -18 8 -17
8 3 1 12 -4 25 -9 28 -6 4 -8 11 -4 16 3 6 12 2 19 -8 13 -17 13 -17 12 2 -2
24 -22 39 -40 29 -9 -5 -9 -4 0 6 7 8 24 14 38 15 22 1 25 -3 21 -20 -4 -20
-4 -20 7 0 7 11 25 32 41 47 15 16 26 34 23 41 -7 19 12 47 20 29 2 -6 9 -10
14 -6 17 10 9 -35 -8 -46 -17 -11 -17 -11 0 -6 9 3 17 0 18 -7 0 -7 4 -3 8 7
7 17 8 18 14 3 3 -9 0 -23 -8 -31 -12 -12 -11 -14 10 -12 14 0 25 7 25 14 0
28 26 10 28 -20 3 -61 7 -86 11 -82 2 2 10 -1 17 -7 13 -11 28 24 39 96 12 73
14 76 36 62 10 -6 22 -20 25 -30 3 -10 15 -27 27 -37 12 -11 15 -20 8 -20 -7
0 -10 -4 -6 -9 3 -5 19 -9 35 -9 16 1 40 -6 54 -15 27 -18 131 -33 214 -31 28
0 52 -3 52 -8 0 -5 5 -6 10 -3 11 7 62 -22 97 -54 12 -12 32 -23 45 -25 13 -2
22 -8 21 -13 -1 -6 9 -8 22 -5 18 3 25 0 25 -12 0 -9 3 -15 8 -15 24 4 42 -3
42 -17 0 -12 6 -15 24 -10 16 4 29 0 41 -14 10 -11 13 -20 7 -20 -6 0 -14 5
-17 10 -10 16 -35 12 -29 -4 4 -11 0 -13 -18 -9 -30 8 -49 23 -42 34 3 5 -6 4
-20 -3 -14 -6 -26 -15 -26 -20 0 -5 -12 -5 -26 -2 -14 4 -35 2 -47 -4 -44 -20
-84 -33 -108 -34 -13 0 -39 -7 -57 -15 -18 -8 -40 -12 -49 -9 -11 5 -14 2 -9
-9 3 -9 2 -13 -4 -10 -12 7 -42 -20 -33 -29 3 -3 0 -12 -7 -21 -7 -8 -10 -21
-7 -29 3 -8 1 -17 -6 -20 -8 -3 -6 -8 6 -16 9 -6 17 -20 17 -30 0 -22 25 -27
33 -7 3 6 6 2 6 -10 1 -13 -2 -23 -7 -23 -13 0 -7 -93 9 -128 7 -17 17 -32 21
-32 14 0 1 -63 -15 -72 -25 -14 -10 -31 15 -17 15 8 19 8 14 0 -4 -6 -2 -11 3
-11 6 0 11 -4 11 -8 0 -8 -25 -12 -87 -13 -27 -1 -28 -3 -6 -25 16 -16 16 -16
-5 -10 -17 6 -22 3 -22 -9 0 -9 5 -13 10 -10 6 3 10 2 10 -4 0 -12 -90 -107
-90 -95 0 5 -4 3 -8 -3 -5 -7 -21 -14 -38 -14 -47 -2 -63 -9 -69 -30 -4 -10
-13 -19 -21 -19 -30 0 -7 -28 45 -54 32 -17 33 -19 26 -63 -8 -56 11 -76 67
-67 20 3 64 -1 98 -10 64 -17 80 -15 80 10 0 8 6 14 14 14 8 0 18 5 21 10 4 7
-5 9 -24 5 -18 -3 -31 -1 -31 5 0 5 -11 9 -25 8 -23 -2 -23 -3 -8 -21 16 -17
16 -17 0 -11 -10 3 -22 15 -28 25 -8 16 -6 19 16 19 14 0 25 4 25 9 0 4 11 7
25 6 14 -2 25 0 25 5 0 16 80 62 96 56 13 -5 14 -3 6 6 -17 21 -9 82 11 86 23
5 22 12 -10 46 -28 30 -38 90 -20 114 7 8 5 12 -6 12 -18 0 -30 27 -16 36 5 3
7 14 4 25 -7 20 8 56 21 51 4 -1 9 5 10 13 2 12 -3 15 -14 10 -15 -5 -15 -4 0
11 17 17 19 17 42 -5 13 -13 37 -24 53 -25 15 -1 62 -11 104 -21 69 -16 84
-17 140 -5 35 8 58 15 51 18 -17 5 42 52 67 52 12 0 21 4 21 9 0 6 18 9 40 9
22 0 40 -4 40 -9 0 -5 -4 -9 -10 -9 -5 0 -7 -6 -4 -14 3 -8 -3 -16 -15 -19
-15 -4 -21 0 -21 11 0 14 -2 14 -9 3 -5 -8 -7 -21 -3 -30 3 -9 2 -13 -2 -9 -5
4 -14 2 -20 -5 -15 -13 1 -37 20 -30 18 7 25 -24 9 -37 -8 -7 -12 -16 -9 -21
3 -5 -4 -9 -14 -9 -11 0 -22 -7 -25 -14 -4 -11 -1 -13 11 -9 10 4 6 -4 -10
-20 -25 -23 -40 -55 -20 -43 4 2 13 1 20 -3 17 -10 4 -71 -17 -79 -32 -11 -82
-55 -77 -68 3 -8 -9 -15 -35 -19 -21 -4 -39 -11 -39 -16 0 -4 7 -6 15 -3 8 4
15 1 15 -5 0 -7 -7 -14 -15 -17 -8 -4 -15 -10 -15 -16 0 -5 -7 -16 -15 -24 -8
-8 -11 -22 -8 -31 5 -12 3 -14 -8 -8 -12 8 -12 6 0 -8 7 -9 9 -17 4 -17 -12 0
-7 -58 7 -95 5 -14 6 -35 1 -47 -4 -13 -6 -28 -4 -35 2 -6 0 -14 -5 -17 -5 -3
-12 12 -16 35 -3 22 -10 38 -14 35 -4 -3 -13 4 -20 14 -9 16 -9 21 4 28 14 8
14 10 0 21 -11 9 -16 10 -16 2 0 -6 -7 -11 -15 -11 -8 0 -15 6 -15 13 0 14
-58 43 -67 33 -4 -3 -2 -6 4 -6 19 0 22 -28 6 -42 -15 -11 -16 -11 -10 5 3 9
2 17 -4 17 -5 0 -12 -7 -15 -15 -4 -8 -10 -12 -16 -9 -5 3 -18 -3 -29 -15 -15
-16 -24 -19 -44 -11 -14 5 -25 6 -25 3 0 -4 -5 -2 -12 5 -7 7 -23 12 -38 12
-14 0 -38 7 -55 16 -23 12 -49 14 -115 10 -95 -6 -140 -14 -140 -26 0 -5 -3
-15 -6 -24 -4 -10 -1 -16 9 -16 20 0 54 -44 62 -80 6 -26 14 -32 63 -47 31 -9
63 -17 71 -17 14 -1 35 -55 23 -57 -25 -6 -80 -3 -76 3 3 4 1 8 -5 8 -5 0 -13
-4 -16 -10 -3 -5 -17 -10 -31 -10 -22 0 -24 -3 -19 -22 7 -21 65 -85 65 -71 0
4 6 -1 13 -11 11 -15 22 -17 73 -11 32 3 73 6 89 5 17 -1 40 -3 53 -4 27 -1
27 -4 5 -30 -18 -21 -18 -21 3 -3 25 21 38 22 30 2 -3 -8 -1 -15 4 -15 6 0 10
5 10 10 0 6 5 10 10 10 6 0 10 -7 10 -15 0 -16 12 -20 24 -8 12 12 46 10 46
-4 0 -8 11 -13 28 -13 19 0 23 -3 13 -9 -7 -5 -11 -14 -7 -20 5 -7 1 -9 -8 -5
-12 5 -16 0 -16 -17 0 -22 0 -22 -15 -3 -14 18 -14 18 -15 0 0 -11 -5 -16 -14
-13 -8 3 -24 -3 -36 -13 -29 -25 -77 -35 -95 -20 -11 9 -18 8 -31 -5 -11 -11
-25 -14 -42 -10 -17 4 -28 1 -38 -12 -7 -10 -14 -13 -14 -7 0 15 -77 8 -94 -9
-14 -13 -11 -18 21 -43 29 -22 61 -32 137 -46 54 -10 101 -19 102 -21 4 -3 8
-98 5 -107 -1 -3 -3 -76 -4 -162 -3 -163 -1 -172 37 -143 14 10 20 28 21 62 3
82 17 322 19 340 2 13 14 19 42 21 37 3 40 1 52 -31 7 -19 15 -70 19 -113 3
-44 10 -90 14 -103 l9 -23 21 26 c33 41 47 34 44 -23 -1 -27 -6 -54 -10 -60
-3 -7 -1 -18 5 -26 7 -8 10 -21 7 -30 -4 -8 -1 -17 5 -21 7 -4 6 -9 -3 -15
-10 -6 -11 -9 -1 -9 6 0 30 -18 52 -40 28 -28 38 -45 33 -57 -6 -15 -4 -16 9
-5 12 10 18 10 28 -2 6 -9 9 -19 6 -25 -3 -5 5 -4 19 2 13 7 24 17 24 22 -3
27 2 34 19 28 15 -6 15 -5 3 10 -7 9 -17 14 -22 11 -5 -3 -9 0 -9 5 0 6 9 11
21 11 18 0 19 2 5 15 -8 8 -18 15 -23 15 -4 0 -8 18 -8 40 0 25 5 40 13 40 6
0 12 5 12 10 0 6 -9 10 -21 10 -11 0 -17 4 -14 10 3 5 15 10 26 10 11 0 18 4
14 9 -3 6 -17 6 -34 1 -44 -12 -30 11 21 35 23 11 47 21 52 21 6 1 16 2 22 3
6 0 21 10 33 20 13 11 28 22 34 24 7 2 9 8 5 12 -5 5 -17 0 -27 -9 -11 -10
-25 -15 -30 -11 -6 3 -11 1 -11 -5 0 -6 -5 -8 -10 -5 -12 7 29 44 80 72 61 33
109 68 115 82 4 10 -1 9 -15 -4 -11 -10 -20 -15 -20 -11 0 3 -16 -1 -36 -9
-43 -18 -47 -18 -39 -5 3 5 1 10 -4 10 -6 0 -11 5 -11 11 0 5 4 8 9 5 15 -10
61 19 67 42 4 13 9 21 12 18 3 -3 15 6 28 19 13 14 27 25 31 25 4 0 22 14 40
30 18 17 38 27 46 24 8 -3 18 -1 21 5 4 6 13 4 24 -7 17 -16 17 -18 -2 -30
-20 -13 -20 -13 3 -8 l23 5 -21 -23 c-11 -12 -21 -25 -21 -29 0 -13 27 -7 40
8 7 8 16 12 21 10 16 -10 -2 -33 -42 -50 -43 -20 -54 -40 -13 -25 35 14 39 13
23 -7 -12 -15 -12 -16 6 -9 55 22 61 20 33 -11 -16 -16 -28 -33 -28 -38 0 -5
6 0 14 11 14 18 15 18 21 2 4 -10 12 -15 17 -12 6 4 8 -1 4 -13 -5 -17 -2 -19
24 -15 19 3 35 -2 46 -12 15 -16 15 -18 0 -35 -23 -25 -20 -30 17 -29 17 1 39
-2 47 -5 11 -5 90 66 265 238 137 135 254 243 260 242 5 -2 10 -22 11 -44 1
-53 3 -57 76 -159 34 -49 63 -91 63 -94 0 -3 6 -14 13 -25 10 -17 13 -18 22
-5 15 23 12 38 -13 54 -48 32 -96 111 -113 185 -15 66 -20 75 -55 96 -21 14
-56 28 -78 31 -44 7 -50 18 -26 44 8 9 16 33 19 53 3 26 13 45 33 60 35 28 59
52 64 64 2 5 24 20 48 34 75 41 108 136 38 110 -19 -8 -28 -6 -37 4 -8 9 -21
13 -36 9 -18 -5 -24 -2 -24 10 0 9 -5 16 -11 16 -6 0 -9 7 -6 14 4 10 1 13 -8
10 -10 -4 -12 1 -8 18 8 29 34 49 49 38 6 -6 20 9 37 44 16 30 36 56 47 59 11
3 24 16 29 29 5 12 18 34 30 47 12 13 21 30 21 37 0 7 11 24 24 37 14 14 22
27 19 31 -3 3 -1 12 6 19 6 8 9 22 5 31 -4 10 -1 17 7 18 56 6 69 16 58 44 -6
18 -6 23 2 18 6 -3 15 -1 19 6 5 8 7 1 6 -17 -2 -16 -6 -34 -9 -40 -4 -6 0
-16 7 -23 16 -12 18 -67 4 -76 -5 -3 -5 -11 0 -17 12 -16 11 -47 -1 -47 -5 0
-4 -6 2 -14 7 -8 12 -43 11 -78 0 -97 1 -189 5 -353 7 -227 7 -264 0 -275 -3
-6 -2 -10 4 -10 6 0 6 -11 1 -30 -5 -19 -5 -28 1 -25 5 4 9 -3 9 -14 0 -10 -6
-22 -12 -24 -9 -4 -10 -8 -2 -14 6 -5 10 -45 9 -103 -1 -52 2 -117 6 -145 4
-27 3 -57 -1 -65 -10 -18 4 -38 47 -68 38 -27 48 -28 50 -4 0 9 3 73 7 142 4
69 8 166 10 215 2 50 5 92 6 95 1 3 2 26 2 53 0 26 5 47 10 47 7 0 7 4 1 13
-16 21 -14 60 3 53 11 -4 12 -2 5 12 -12 23 -11 82 1 82 5 0 7 13 3 28 -3 16
-1 40 4 54 5 14 7 29 4 32 -4 3 -7 19 -7 35 -1 19 3 27 12 23 10 -3 11 3 6 23
-4 16 -3 26 2 22 10 -6 12 88 2 98 -4 4 0 18 9 31 9 14 11 24 4 24 -7 0 -8 8
-1 24 5 13 6 27 3 30 -4 3 0 18 7 32 12 22 12 27 0 34 -10 6 -11 10 -3 10 7 0
10 7 6 17 -4 9 -2 14 3 11 5 -4 9 7 9 23 0 16 -4 29 -9 29 -5 0 -4 6 1 13 6 6
9 22 8 35 -1 12 3 22 8 22 5 0 4 6 -2 14 -9 11 -9 15 1 19 11 4 11 6 0 6 -10
1 -10 6 -1 22 6 12 9 30 6 40 -3 10 -2 19 3 19 4 0 5 12 2 26 -3 19 -1 25 6
20 8 -5 10 -2 6 8 -3 9 -10 16 -14 16 -16 0 -3 34 16 41 10 4 14 8 8 8 -7 1
-15 8 -18 17 -3 9 -2 12 5 9 6 -4 7 3 3 19 -4 17 -2 26 6 26 9 0 9 4 2 13 -11
13 9 52 21 40 4 -3 7 -2 7 4 0 5 -3 13 -7 17 -9 9 -10 86 -2 80 12 -7 19 27 9
45 -9 19 -7 72 5 91 3 5 0 10 -7 10 -9 1 -7 5 5 14 16 12 16 14 2 20 -9 3 -13
10 -10 16 3 5 0 10 -7 10 -9 0 -9 3 -2 8 6 4 17 18 24 31 10 20 10 23 -2 18
-15 -5 -16 20 -3 90 2 13 -1 25 -6 28 -5 4 -2 13 6 21 8 9 12 20 9 25 -10 18
-12 59 -1 59 5 0 4 6 -2 14 -7 8 -8 17 -4 19 5 3 8 44 7 91 0 47 3 86 7 86 5
0 4 11 -3 25 -8 18 -8 28 1 39 7 8 8 16 4 19 -8 5 -8 34 -4 152 1 28 0 71 -3
98 -2 26 -1 47 3 47 12 0 8 54 -4 63 -6 4 -5 11 5 18 11 8 12 12 3 16 -9 3
-10 10 -4 21 4 9 8 30 7 45 -1 16 1 30 5 33 4 2 3 21 -2 41 -4 21 -4 55 1 76
7 33 6 38 -7 32 -14 -5 -14 -3 -2 11 14 17 20 56 7 48 -4 -3 -8 4 -8 16 0 12
4 18 10 15 6 -3 10 -1 10 4 0 6 -6 11 -12 11 -10 0 -10 2 -1 8 8 5 8 16 -2 45
-11 33 -11 37 4 37 13 0 13 2 2 9 -8 5 -10 14 -5 22 9 16 12 109 2 103 -4 -2
-3 9 2 26 5 17 6 38 3 46 -3 8 -1 14 4 14 11 0 9 53 -3 71 -5 9 -2 10 9 6 19
-7 22 9 8 33 -6 8 -7 18 -4 23 3 5 9 3 14 -4 5 -9 7 -3 5 16 -2 16 -8 31 -15
33 -20 7 -12 21 10 17 18 -4 19 -2 7 12 -7 9 -13 29 -14 45 -2 26 0 27 12 11
12 -16 13 -14 11 22 -2 33 1 39 15 37 22 -3 32 13 10 17 -9 2 -149 5 -311 7
-274 5 -292 4 -277 -12 10 -9 15 -23 12 -30 -3 -8 2 -14 12 -15 9 -1 4 -4 -12
-8 -16 -3 -31 -12 -34 -19 -3 -9 3 -10 23 -2 36 14 39 13 21 -6 -18 -18 -22
-39 -5 -28 8 4 9 -1 4 -16 -5 -15 -2 -25 6 -31 10 -6 7 -9 -11 -10 -15 0 -19
-3 -10 -6 18 -7 54 -43 42 -43 -4 0 -12 4 -18 10 -6 6 -9 0 -9 -15 0 -29 0
-28 26 -15 13 7 19 7 19 0 0 -5 -7 -10 -17 -10 -9 0 -13 -3 -10 -7 4 -3 -1
-15 -10 -25 -12 -13 -13 -18 -4 -16 17 4 24 -32 10 -49 -12 -13 -4 -33 13 -33
5 0 7 7 4 16 -6 15 -4 15 10 3 15 -12 14 -15 -10 -25 -28 -11 -30 -17 -15 -46
6 -11 5 -18 -4 -22 -6 -3 -1 -3 13 1 23 5 24 4 10 -12 -13 -15 -12 -19 3 -30
22 -16 22 -26 0 -18 -16 6 -16 5 -4 -10 11 -14 11 -20 0 -34 -12 -15 -12 -16
5 -10 16 6 17 5 6 -8 -8 -10 -9 -15 -1 -15 15 0 14 -16 -4 -33 -12 -13 -12
-16 6 -20 12 -3 18 -10 14 -16 -3 -7 0 -8 9 -5 9 3 16 1 16 -5 0 -6 -4 -11
-10 -11 -5 0 -10 -5 -10 -11 0 -5 4 -8 8 -5 4 2 7 -9 7 -25 0 -17 -7 -34 -15
-39 -7 -4 -15 -18 -17 -30 -2 -14 1 -19 8 -14 7 4 9 0 5 -13 -4 -12 1 -24 14
-33 20 -14 29 -37 10 -25 -5 3 -10 2 -10 -4 0 -5 6 -11 13 -14 9 -3 9 -7 -1
-19 -10 -13 -9 -18 4 -29 13 -11 13 -15 2 -24 -20 -15 -20 -35 -1 -35 14 0 15
-2 4 -9 -7 -5 -10 -14 -7 -20 9 -15 -7 -14 -22 1 -9 9 -12 9 -12 0 0 -7 5 -12
10 -12 6 0 10 -7 10 -15 0 -7 8 -19 18 -24 16 -10 16 -12 -2 -26 -11 -8 -15
-15 -8 -15 14 0 12 -41 -3 -53 -5 -5 1 -5 15 -1 24 6 24 6 8 -13 -10 -11 -18
-24 -18 -30 0 -5 -12 -20 -26 -34 -17 -16 -24 -31 -21 -46 2 -13 0 -23 -4 -23
-5 0 -9 6 -9 14 0 13 -34 30 -53 27 -5 -1 -6 3 -3 8 3 5 -6 30 -20 55 -14 25
-23 46 -19 46 17 0 -83 104 -112 117 -37 15 -40 24 -18 43 23 19 12 22 -20 6
-15 -8 -35 -12 -44 -9 -25 9 -51 35 -45 44 3 5 -2 6 -11 3 -9 -4 -15 -3 -13 2
7 20 -68 74 -102 74 -11 0 -28 4 -38 10 -80 44 -268 119 -289 114 -22 -5 -63
56 -63 94 0 21 -2 24 -10 12 -6 -9 -10 -10 -10 -3 0 7 9 17 20 23 11 6 20 16
20 22 0 7 -4 7 -13 0 -17 -15 -44 25 -28 41 8 8 6 16 -7 31 -9 11 -12 16 -5
13 6 -4 14 -3 18 3 3 5 1 10 -6 10 -10 0 -10 3 -1 12 7 7 12 24 12 39 0 15 5
31 10 34 11 7 3 46 -10 55 -5 3 -1 14 7 25 13 16 15 17 10 3 -4 -12 -1 -18 9
-18 15 0 15 2 0 25 -18 28 -21 39 -6 30 6 -3 10 -3 11 2 0 4 2 16 4 26 2 13
-1 17 -12 13 -13 -5 -13 -4 -4 7 6 8 10 25 9 38 -2 15 2 23 9 22 9 -2 10 4 3
23 -9 22 -8 25 5 20 8 -3 15 -1 15 4 0 6 -4 10 -10 10 -10 0 -3 27 13 48 13
17 17 53 5 46 -13 -8 -9 10 7 33 13 19 13 22 -1 27 -9 3 -159 6 -335 6 -294 0
-343 -4 -309 -25 6 -3 10 -11 10 -16 0 -6 -5 -7 -12 -3 -6 4 -8 3 -4 -4 10
-17 15 -92 5 -92 -5 0 -5 -10 0 -22 5 -13 5 -33 0 -45 -5 -14 -5 -23 1 -23 5
0 7 -7 4 -15 -4 -9 0 -15 7 -15 11 0 11 -2 -1 -10 -11 -7 -12 -12 -3 -21 7 -7
9 -18 4 -28 -5 -9 -9 -38 -10 -66 -1 -27 -4 -58 -7 -67 -3 -10 -1 -18 5 -18 6
0 7 -14 4 -34 -3 -18 0 -43 6 -55 7 -11 8 -21 4 -21 -14 0 -7 -51 8 -61 8 -5
9 -9 3 -9 -7 0 -15 -7 -18 -16 -3 -8 -2 -12 4 -9 6 3 10 1 10 -4 0 -6 -5 -11
-11 -11 -6 0 -8 -7 -5 -15 3 -8 9 -21 12 -29 4 -10 -14 -18 -68 -32 -84 -20
-139 -24 -130 -10 3 6 7 67 9 136 2 100 10 309 12 329 1 2 3 61 7 130 3 69 6
137 7 151 2 25 2 25 -95 27 -90 1 -98 0 -98 -18 0 -10 9 -24 20 -31 11 -7 20
-16 20 -21 0 -4 -4 -5 -10 -2 -11 7 -14 -28 -3 -39 4 -3 8 -13 9 -20 1 -7 5
-23 9 -35 4 -13 1 -29 -7 -38 -11 -15 -11 -16 5 -10 15 6 16 4 7 -13 -7 -13
-7 -20 -1 -20 7 0 7 -9 3 -22 -5 -13 -7 -50 -5 -83 2 -33 3 -67 4 -75 0 -29
-8 -77 -16 -90 -5 -9 -4 -11 3 -6 8 5 12 0 12 -13 0 -11 -5 -23 -11 -27 -8 -4
-7 -9 2 -16 11 -7 11 -11 1 -15 -6 -2 -9 -9 -6 -15 11 -18 14 -158 3 -158 -6
0 -7 -5 -3 -12 4 -7 8 -23 9 -36 1 -27 -32 -53 -93 -73 -33 -11 -141 -73 -151
-86 -3 -5 -26 -15 -51 -23 -35 -12 -62 -13 -121 -6 l-75 8 -55 -36 c-30 -20
-65 -44 -79 -53 -13 -10 -21 -12 -16 -5 9 15 -6 16 -22 0 -8 -8 -12 -9 -12 -1
0 6 5 13 12 15 18 6 18 38 0 39 -11 0 -8 4 8 11 16 6 20 12 12 15 -10 4 -10 8
-1 19 8 10 8 14 0 14 -6 0 -11 5 -11 10 0 6 7 10 15 10 11 0 12 5 5 26 -14 37
-13 49 5 34 20 -17 19 -1 -2 22 -16 18 -16 18 0 12 12 -4 17 -1 17 11 0 12 -6
16 -20 12 -11 -3 -23 -1 -26 4 -3 5 4 9 15 9 18 0 19 5 15 52 -4 47 -3 50 10
32 8 -11 10 -21 5 -25 -5 -3 -6 -14 -2 -24 6 -17 8 -15 15 10 4 16 4 32 -1 35
-9 5 -9 150 -1 150 3 0 6 12 7 28 0 15 2 41 3 57 1 17 0 39 -2 50 -2 12 2 19
9 18 7 -2 10 4 7 12 -4 8 -1 15 5 15 6 0 11 5 11 11 0 8 -4 9 -13 0 -23 -18
-28 1 -6 20 12 10 18 22 15 28 -4 5 -2 12 4 16 5 3 7 20 3 37 -4 20 -2 29 4
25 7 -4 9 6 7 26 -6 50 -6 60 -5 92 1 24 3 27 12 15 8 -11 9 -7 4 18 -4 20 -2
38 5 47 8 10 8 19 1 34 -6 11 -8 27 -5 35 5 14 -21 16 -250 16 -141 0 -256 -4
-256 -8z m1030 -22 c0 -5 -2 -10 -4 -10 -3 0 -8 5 -11 10 -3 6 -1 10 4 10 6 0
11 -4 11 -10z m1755 -400 c3 -5 2 -10 -4 -10 -5 0 -13 5 -16 10 -3 6 -2 10 4
10 5 0 13 -4 16 -10z m-2371 -256 c3 -8 2 -12 -4 -9 -6 3 -10 10 -10 16 0 14
7 11 14 -7z m1522 -68 c18 -14 18 -15 0 -22 -11 -4 -21 -2 -27 7 -19 31 -5 38
27 15z m614 -336 c0 -5 -4 -10 -9 -10 -6 0 -13 5 -16 10 -3 6 1 10 9 10 9 0
16 -4 16 -10z m49 -22 c24 -25 63 -100 56 -107 -9 -8 -60 36 -57 49 1 6 -2 9
-7 6 -5 -3 -14 1 -21 9 -10 12 -9 15 5 15 17 0 17 1 2 18 -10 10 -17 22 -17
25 0 14 20 6 39 -15z m-2545 -24 c3 -8 2 -12 -4 -9 -6 3 -10 10 -10 16 0 14 7
11 14 -7z m2806 -18 c0 -3 -4 -8 -10 -11 -5 -3 -10 -1 -10 4 0 6 5 11 10 11 6
0 10 -2 10 -4z m-20 -116 c-11 -7 -11 -12 -2 -23 12 -14 7 -27 -11 -27 -6 0
-8 3 -4 6 3 4 -1 13 -9 22 -14 14 -14 17 8 28 25 13 41 8 18 -6z m-84 -77 c-7
-7 -26 7 -26 19 0 6 6 6 15 -2 9 -7 13 -15 11 -17z m74 -74 c0 -5 -7 -6 -15
-3 -8 4 -15 13 -15 21 0 13 3 13 15 3 8 -7 15 -16 15 -21z m-2490 -88 c0 -11
-31 -24 -39 -16 -3 3 1 10 9 15 19 12 30 12 30 1z m-70 -11 c0 -5 -5 -10 -11
-10 -5 0 -7 5 -4 10 3 6 8 10 11 10 2 0 4 -4 4 -10z m-25 -39 c-3 -6 3 -14 12
-20 10 -6 14 -10 8 -11 -19 0 -38 18 -31 29 4 6 9 11 12 11 3 0 3 -4 -1 -9z
m65 -57 c0 -11 8 -14 28 -12 22 2 26 0 24 -17 -5 -27 -9 -30 -25 -16 -11 9
-17 8 -27 -4 -14 -17 -35 -21 -25 -5 3 6 -1 7 -10 4 -14 -6 -14 -8 1 -19 17
-12 12 -35 -7 -35 -6 0 -7 6 -3 13 6 9 4 9 -8 -1 -8 -7 -23 -9 -33 -6 -16 6
-15 9 6 25 l24 19 -28 0 c-19 0 -26 -4 -21 -12 4 -7 3 -8 -5 -4 -17 11 -3 26
24 26 15 0 26 7 30 20 4 12 14 19 23 18 12 -2 16 3 14 16 -2 11 1 15 7 11 6
-3 11 -13 11 -21z m90 -114 c0 -5 -4 -10 -10 -10 -5 0 -10 5 -10 10 0 6 5 10
10 10 6 0 10 -4 10 -10z m-160 -25 c-27 -14 -36 -13 -25 4 3 6 16 11 28 11 21
-1 21 -1 -3 -15z m-150 -435 c0 -5 -5 -10 -11 -10 -5 0 -7 5 -4 10 3 6 8 10
11 10 2 0 4 -4 4 -10z m1185 -100 c-3 -5 -12 -10 -20 -10 -8 0 -17 5 -20 10
-4 6 5 10 20 10 15 0 24 -4 20 -10z m-395 -330 c0 -5 -7 -10 -15 -10 -8 0 -15
5 -15 10 0 6 7 10 15 10 8 0 15 -4 15 -10z m1538 -36 c-2 -26 -10 -40 -30 -52
-26 -15 -29 -15 -45 1 -16 15 -12 20 14 16 4 0 15 15 25 35 24 46 40 46 36 0z
m50 -60 c-14 -15 -32 -24 -39 -21 -9 3 -4 9 14 16 15 6 27 15 27 21 0 5 6 10
12 10 7 0 1 -12 -14 -26z m-1604 6 c40 -15 36 -62 -6 -89 -30 -19 -34 -19 -45
-5 -7 9 -19 14 -28 11 -8 -4 -15 -2 -15 2 0 5 5 11 11 13 7 2 5 9 -5 17 -11 9
-16 10 -16 2 0 -6 -4 -11 -10 -11 -5 0 -10 8 -10 18 0 13 14 23 48 34 26 9 48
17 49 17 1 1 13 -3 27 -9z m1428 -32 c-18 -18 -79 -36 -93 -27 -18 11 -12 14
41 26 62 15 66 15 52 1z m-14 -71 c8 0 7 -6 -5 -19 -18 -20 -4 -25 28 -8 15 8
19 7 19 -4 0 -31 -80 -40 -185 -21 -11 2 -23 4 -27 4 -5 1 -8 10 -8 21 0 28
34 39 105 33 33 -3 66 -5 73 -6z m-1528 -372 c16 -19 0 -19 -36 0 l-29 15 26
0 c15 0 32 -7 39 -15z m105 -15 c4 -6 -5 -10 -19 -10 -14 0 -26 5 -26 10 0 6
9 10 19 10 11 0 23 -4 26 -10z m242 -40 c-1 -11 -7 -18 -13 -16 -6 2 -21 -2
-33 -10 -12 -9 -21 -11 -21 -5 0 6 5 11 10 11 6 0 10 6 10 14 0 14 14 24 37
25 6 1 11 -8 10 -19z m133 0 c-7 -4 -10 -15 -7 -24 4 -9 2 -16 -3 -16 -11 0
-13 21 -4 44 3 9 11 13 16 10 6 -4 5 -9 -2 -14z m-445 -1 c10 -15 -1 -23 -20
-15 -9 3 -13 10 -10 16 8 13 22 13 30 -1z m75 -9 c0 -6 -14 -10 -31 -10 -16 0
-28 3 -25 8 7 11 56 13 56 2z m115 -13 c-8 -4 -19 -6 -24 -2 -5 3 -12 2 -15
-3 -7 -11 -66 -14 -66 -3 0 11 31 18 82 17 26 0 33 -3 23 -9z m-130 -17 c-3
-5 -14 -10 -23 -10 -15 0 -15 2 -2 10 20 13 33 13 25 0z m1002 -366 c-3 -3
-12 -4 -19 -1 -8 3 -5 6 6 6 11 1 17 -2 13 -5z m-1092 -24 c3 -5 -1 -10 -9
-10 -9 0 -16 5 -16 10 0 6 4 10 9 10 6 0 13 -4 16 -10z m787 -202 c-7 -7 -12
-8 -12 -2 0 14 12 26 19 19 2 -3 -1 -11 -7 -17z"/>
<path d="M3276 5104 c-11 -8 -16 -14 -10 -14 13 0 39 18 34 24 -3 2 -14 -2
-24 -10z"/>
<path d="M3310 5106 c0 -8 -6 -17 -12 -19 -9 -4 -8 -6 2 -6 10 -1 11 -4 3 -9
-8 -5 -8 -12 3 -26 8 -11 14 -14 14 -8 0 9 5 10 18 3 28 -15 72 -21 72 -10 0
6 4 8 9 5 5 -3 7 -16 3 -28 -3 -14 -2 -19 6 -14 7 4 15 0 18 -9 6 -14 10 -13
28 10 12 14 31 27 42 28 24 1 25 10 5 47 l-14 25 26 -24 c15 -13 24 -28 21
-32 -3 -5 0 -9 6 -9 7 0 9 7 6 16 -4 11 -2 15 7 11 8 -3 14 5 15 24 1 16 -1
28 -5 27 -5 0 -16 2 -25 6 -9 4 -26 2 -38 -4 -15 -8 -20 -8 -16 -1 5 8 -23 11
-93 11 -81 0 -101 -3 -101 -14z m250 -18 c0 -19 -2 -20 -10 -8 -13 19 -13 30
0 30 6 0 10 -10 10 -22z m-180 -30 c0 -9 4 -8 10 2 5 8 10 11 10 5 0 -5 -5
-17 -10 -25 -6 -10 -10 -11 -10 -2 0 6 -7 12 -16 12 -8 0 -12 5 -9 10 9 14 25
12 25 -2z m70 -20 l20 -22 0 22 c0 18 3 21 18 14 9 -5 23 -7 31 -4 9 3 11 0 6
-7 -4 -7 -13 -10 -21 -7 -8 3 -21 -5 -30 -19 -13 -20 -20 -23 -30 -14 -8 6
-11 15 -8 21 3 5 0 15 -6 23 -19 23 -3 17 20 -7z"/>
<path d="M3692 5099 c-8 -12 -9 -18 -3 -14 6 3 11 1 11 -4 0 -6 5 -11 12 -11
9 0 9 3 1 11 -6 6 -9 18 -6 25 8 21 0 17 -15 -7z"/>
<path d="M4392 5103 c2 -12 11 -17 26 -15 15 2 22 -2 22 -12 0 -9 -4 -16 -10
-16 -5 0 -10 -7 -10 -15 0 -8 6 -14 13 -12 7 1 11 -6 9 -16 -2 -11 5 -28 15
-39 19 -22 20 -27 5 -37 -5 -3 -13 -17 -17 -31 l-8 -25 22 25 c14 16 19 19 15
8 -6 -19 10 -25 21 -8 11 17 24 11 22 -10 -1 -11 -9 -22 -18 -25 -25 -8 -30
-31 -12 -47 14 -11 16 -11 10 4 -3 9 1 22 10 30 20 16 63 18 63 2 0 -14 28
-27 41 -18 5 3 9 1 9 -5 0 -5 -4 -12 -10 -16 -5 -3 -7 -12 -4 -20 4 -8 10 -13
14 -10 5 3 6 -5 2 -17 -3 -13 -1 -19 5 -15 6 4 11 -4 11 -18 0 -14 -4 -28 -9
-31 -5 -3 -9 -10 -9 -15 0 -6 4 -8 9 -4 5 3 19 -8 31 -25 16 -22 17 -28 6 -24
-9 3 -16 12 -16 20 0 8 -6 14 -14 14 -12 0 -13 -7 -5 -32 13 -45 12 -47 -13
-41 -18 5 -20 3 -12 -7 15 -16 49 -8 48 10 -1 9 9 16 22 16 24 2 23 -1 -19
-48 -10 -11 -16 -23 -12 -26 4 -4 12 1 19 11 17 22 28 22 24 1 -2 -10 3 -19
11 -22 8 -2 11 0 8 5 -3 5 3 9 14 9 16 0 14 -4 -11 -26 -27 -23 -44 -60 -21
-46 5 3 11 -8 13 -24 3 -17 1 -30 -2 -30 -12 0 -6 -64 8 -78 15 -16 15 -29 2
-37 -8 -5 -7 -11 0 -20 8 -10 8 -19 0 -35 -11 -20 -10 -21 9 -11 16 9 19 9 15
-3 -3 -7 -15 -18 -27 -24 l-22 -11 23 -7 c18 -5 20 -9 10 -15 -10 -7 -10 -9 0
-9 10 0 10 -5 2 -20 -8 -15 -8 -20 2 -20 10 0 10 -2 -1 -9 -7 -5 -11 -13 -7
-19 3 -6 2 -13 -3 -17 -6 -3 -8 -12 -4 -20 4 -11 0 -14 -13 -9 -15 5 -16 4 -4
-4 8 -6 17 -9 21 -6 4 2 11 -14 17 -36 7 -30 7 -44 -4 -57 -7 -10 -13 -22 -14
-28 0 -5 5 -3 10 5 7 11 10 11 10 2 0 -7 4 -11 9 -8 4 3 7 -8 5 -25 -3 -25 -1
-29 9 -20 11 8 13 6 11 -12 -1 -12 -3 -26 -3 -31 -1 -4 -9 -5 -18 -2 -15 6
-15 4 2 -14 10 -11 13 -20 7 -20 -7 0 -12 -5 -12 -11 0 -8 4 -8 14 1 8 6 13
17 10 24 -3 7 5 12 18 13 13 1 18 -1 11 -5 -6 -4 -15 -19 -18 -35 -4 -15 -11
-24 -16 -21 -5 3 -9 -1 -10 -8 -5 -77 -4 -94 10 -105 9 -7 11 -13 5 -13 -6 0
-11 -6 -11 -14 0 -8 5 -14 11 -13 6 1 11 -7 11 -18 0 -24 14 -47 24 -40 5 2 7
-7 5 -20 -2 -27 5 -32 24 -13 9 9 12 9 12 0 0 -7 -5 -12 -11 -12 -6 0 -7 -6
-2 -12 4 -8 -3 -6 -17 3 -25 16 -25 16 -26 -13 -1 -17 2 -24 6 -18 6 9 13 9
26 1 17 -9 17 -10 2 -11 -9 0 -20 -5 -24 -12 -5 -8 -2 -9 9 -5 10 3 17 2 17
-3 0 -6 -4 -10 -9 -10 -5 0 -12 -7 -15 -16 -5 -12 -2 -15 10 -10 10 4 14 2 11
-6 -2 -7 2 -26 10 -42 8 -15 10 -25 4 -22 -7 4 -8 1 -5 -8 3 -9 13 -16 22 -16
8 0 13 -3 9 -6 -3 -3 -2 -17 4 -31 5 -15 5 -22 0 -18 -17 10 -23 -15 -7 -31
21 -20 20 -38 -1 -30 -14 6 -14 4 2 -14 11 -13 15 -24 10 -28 -6 -4 -10 -13
-10 -21 0 -8 -6 -16 -13 -19 -7 -2 -10 2 -6 12 3 9 2 16 -4 16 -5 0 -9 -20 -8
-45 0 -37 3 -44 20 -42 10 1 21 -5 23 -13 4 -13 3 -13 -6 0 -9 13 -11 13 -11
-2 0 -9 4 -18 10 -20 5 -1 13 -22 16 -45 4 -32 2 -43 -8 -43 -8 -1 -7 -4 5
-11 9 -5 17 -15 17 -20 0 -6 -4 -8 -9 -5 -5 3 -9 0 -8 -7 1 -32 -5 -71 -10
-59 -2 6 -9 12 -14 12 -6 0 -7 -5 -3 -11 3 -6 1 -14 -5 -18 -8 -6 -9 -15 -2
-34 9 -22 8 -27 -4 -27 -22 0 -18 -15 8 -28 12 -6 16 -11 8 -11 -11 -1 -11 -4
0 -18 8 -9 14 -19 14 -22 0 -3 3 -5 8 -3 4 1 6 -4 5 -10 -2 -7 4 -13 12 -12
16 1 17 -7 7 -131 -1 -16 -8 -34 -14 -38 -18 -11 -16 -22 4 -43 13 -13 14 -16
3 -12 -8 2 -20 -1 -27 -8 -17 -17 -16 -24 2 -24 17 0 19 -11 5 -28 -7 -9 -7
-9 2 -2 19 16 29 12 19 -8 -26 -47 -31 -83 -15 -108 15 -23 13 -28 -11 -25 -5
1 -3 -4 6 -11 9 -7 14 -19 11 -27 -3 -10 1 -12 17 -8 11 3 21 1 21 -4 0 -5 -5
-9 -10 -9 -15 0 -7 -23 13 -38 18 -14 19 -42 2 -54 -6 -4 -2 -13 10 -22 19
-15 19 -15 -5 -9 l-25 5 22 -16 c18 -14 21 -21 13 -42 -6 -15 -6 -23 -1 -19 6
3 25 -4 43 -15 21 -12 27 -20 16 -20 -9 0 -20 5 -23 10 -10 16 -21 11 -21 -10
0 -11 3 -20 7 -20 11 0 17 -37 9 -50 -14 -23 0 -38 33 -36 27 2 33 7 35 30 2
15 10 30 18 33 8 3 14 9 14 15 0 5 -4 6 -10 3 -5 -3 -10 -1 -10 4 0 6 4 11 10
11 5 0 12 11 16 25 6 26 23 34 25 13 1 -7 5 5 9 27 13 62 11 235 -3 235 -8 0
-8 3 1 12 9 9 12 344 12 1445 l0 1433 -351 0 c-252 0 -348 -3 -343 -11 4 -7
-1 -7 -16 1 -19 10 -21 9 -18 -7z m70 -105 c-7 -7 -12 -8 -12 -2 0 6 3 14 7
17 3 4 9 5 12 2 2 -3 -1 -11 -7 -17z m75 16 c-3 -3 -12 -4 -19 -1 -8 3 -5 6 6
6 11 1 17 -2 13 -5z m-23 -62 c3 -5 -1 -9 -9 -9 -8 0 -12 4 -9 9 3 4 7 8 9 8
2 0 6 -4 9 -8z m41 -21 c-3 -6 -11 -11 -17 -11 -6 0 -6 6 2 15 14 17 26 13 15
-4z m125 -165 c0 -2 -7 -6 -15 -10 -8 -3 -15 -1 -15 4 0 6 7 10 15 10 8 0 15
-2 15 -4z m60 -691 c7 -9 8 -15 2 -15 -5 0 -12 7 -16 15 -3 8 -4 15 -2 15 2 0
9 -7 16 -15z m20 -109 c0 -2 -7 -7 -16 -10 -8 -3 -12 -2 -9 4 6 10 25 14 25 6z
m45 -316 c-3 -5 -12 -10 -18 -10 -7 0 -6 4 3 10 19 12 23 12 15 0z m5 -50 c0
-11 -4 -20 -9 -20 -5 0 -7 9 -4 20 3 11 7 20 9 20 2 0 4 -9 4 -20z m70 -489
c0 -12 -39 -21 -45 -11 -3 5 3 11 12 13 29 8 33 7 33 -2z m214 -1111 c-6 -6
-10 -3 -10 10 0 13 4 16 10 10 7 -7 7 -13 0 -20z m-104 -5 c-7 -9 -15 -13 -19
-10 -3 3 1 10 9 15 21 14 24 12 10 -5z m30 -105 c0 -5 -2 -10 -4 -10 -3 0 -8
5 -11 10 -3 6 -1 10 4 10 6 0 11 -4 11 -10z m10 -31 c0 -6 -9 -8 -20 -4 -12 4
-20 2 -20 -5 0 -6 -5 -8 -10 -5 -6 4 -8 11 -5 16 8 13 55 11 55 -2z"/>
<path d="M4345 5080 c3 -5 8 -10 11 -10 2 0 4 5 4 10 0 6 -5 10 -11 10 -5 0
-7 -4 -4 -10z"/>
<path d="M4303 5064 c0 -16 13 -19 21 -5 3 5 0 11 -7 14 -8 3 -14 -1 -14 -9z"/>
<path d="M3621 5029 c11 -22 29 -25 29 -5 0 7 -9 16 -20 19 -17 4 -18 2 -9
-14z"/>
<path d="M3580 5029 c0 -5 5 -7 10 -4 6 3 10 8 10 11 0 2 -4 4 -10 4 -5 0 -10
-5 -10 -11z"/>
<path d="M3345 5010 c-3 -6 1 -7 9 -4 18 7 21 14 7 14 -6 0 -13 -4 -16 -10z"/>
<path d="M3555 5000 c3 -5 8 -10 11 -10 2 0 4 5 4 10 0 6 -5 10 -11 10 -5 0
-7 -4 -4 -10z"/>
<path d="M4400 4995 c-7 -8 -9 -15 -6 -15 4 0 14 7 22 15 9 8 11 15 6 15 -5 0
-15 -7 -22 -15z"/>
<path d="M2985 4990 c3 -5 8 -10 11 -10 2 0 4 5 4 10 0 6 -5 10 -11 10 -5 0
-7 -4 -4 -10z"/>
<path d="M3577 4973 c-11 -11 -17 -13 -17 -5 0 7 -5 12 -12 12 -9 0 -9 -3 0
-12 9 -9 8 -16 -5 -30 -27 -30 -6 -20 28 13 17 17 29 32 27 34 -2 3 -12 -3
-21 -12z"/>
<path d="M3489 4966 c10 -11 9 -15 -4 -18 -13 -2 -12 -5 5 -16 18 -11 19 -10
16 10 -3 13 -5 26 -5 31 -1 4 -6 7 -12 7 -8 0 -8 -4 0 -14z"/>
<path d="M4414 4958 c9 -5 23 -5 32 0 12 6 7 9 -16 9 -23 0 -28 -3 -16 -9z"/>
<path d="M3346 4952 c5 -4 12 -11 15 -15 3 -5 9 -2 12 5 3 9 -3 14 -15 15 -11
1 -16 -1 -12 -5z"/>
<path d="M3415 4950 c3 -5 8 -10 11 -10 2 0 4 5 4 10 0 6 -5 10 -11 10 -5 0
-7 -4 -4 -10z"/>
<path d="M3470 4905 c7 -8 16 -12 21 -9 13 8 1 24 -18 24 -13 0 -13 -3 -3 -15z"/>
<path d="M3330 4890 c0 -5 5 -10 11 -10 5 0 7 5 4 10 -3 6 -8 10 -11 10 -2 0
-4 -4 -4 -10z"/>
<path d="M4515 4849 c-4 -6 -4 -13 -1 -16 3 -4 6 -1 6 5 0 8 7 9 26 1 24 -8
25 -8 14 6 -14 17 -36 20 -45 4z"/>
<path d="M4537 4814 c-4 -4 -4 -11 -1 -15 7 -12 34 -11 34 1 0 5 -7 6 -17 3
-11 -4 -14 -3 -9 5 8 13 3 16 -7 6z"/>
<path d="M3460 4800 c0 -5 4 -10 9 -10 6 0 13 5 16 10 3 6 -1 10 -9 10 -9 0
-16 -4 -16 -10z"/>
<path d="M4571 4776 c-15 -18 0 -28 16 -10 7 7 9 15 4 18 -5 3 -14 -1 -20 -8z"/>
<path d="M4508 4773 c7 -3 16 -2 19 1 4 3 -2 6 -13 5 -11 0 -14 -3 -6 -6z"/>
<path d="M3438 4758 c5 -5 16 -8 23 -6 8 3 3 7 -10 11 -17 4 -21 3 -13 -5z"/>
<path d="M3460 4679 c0 -5 5 -7 10 -4 6 3 10 8 10 11 0 2 -4 4 -10 4 -5 0 -10
-5 -10 -11z"/>
<path d="M4570 4669 c0 -5 5 -7 10 -4 6 3 10 8 10 11 0 2 -4 4 -10 4 -5 0 -10
-5 -10 -11z"/>
<path d="M1035 4530 c-3 -5 -1 -10 4 -10 6 0 11 5 11 10 0 6 -2 10 -4 10 -3 0
-8 -4 -11 -10z"/>
<path d="M4650 4531 c0 -14 18 -23 31 -15 8 4 7 9 -2 15 -18 11 -29 11 -29 0z"/>
<path d="M2910 4520 c0 -5 5 -10 11 -10 5 0 7 5 4 10 -3 6 -8 10 -11 10 -2 0
-4 -4 -4 -10z"/>
<path d="M4655 4410 c3 -5 10 -10 16 -10 5 0 9 5 9 10 0 6 -7 10 -16 10 -8 0
-12 -4 -9 -10z"/>
<path d="M4666 4374 c-4 -10 -1 -14 6 -12 15 5 23 28 10 28 -5 0 -13 -7 -16
-16z"/>
<path d="M4687 4326 c-4 -10 -1 -13 9 -9 15 6 19 23 5 23 -5 0 -11 -7 -14 -14z"/>
<path d="M4675 4260 c-3 -5 -1 -10 4 -10 6 0 11 5 11 10 0 6 -2 10 -4 10 -3 0
-8 -4 -11 -10z"/>
<path d="M11 4151 c-8 -5 -9 -11 -3 -15 5 -3 12 1 16 9 6 17 6 18 -13 6z"/>
<path d="M1420 4049 c0 -5 5 -7 10 -4 6 3 10 8 10 11 0 2 -4 4 -10 4 -5 0 -10
-5 -10 -11z"/>
<path d="M3817 4019 c7 -7 15 -10 18 -7 3 3 -2 9 -12 12 -14 6 -15 5 -6 -5z"/>
<path d="M3695 3930 c3 -5 8 -10 11 -10 2 0 4 5 4 10 0 6 -5 10 -11 10 -5 0
-7 -4 -4 -10z"/>
<path d="M3763 3859 c6 -10 14 -16 19 -13 11 7 -1 31 -16 31 -11 0 -12 -4 -3
-18z"/>
<path d="M4770 3550 c0 -5 5 -10 11 -10 5 0 7 5 4 10 -3 6 -8 10 -11 10 -2 0
-4 -4 -4 -10z"/>
<path d="M1285 3330 c3 -5 8 -10 11 -10 2 0 4 5 4 10 0 6 -5 10 -11 10 -5 0
-7 -4 -4 -10z"/>
<path d="M4825 3180 c3 -5 11 -10 16 -10 6 0 7 5 4 10 -3 6 -11 10 -16 10 -6
0 -7 -4 -4 -10z"/>
<path d="M1423 3106 c-21 -45 -13 -71 44 -134 33 -36 56 -52 72 -52 35 0 15
-15 -41 -30 -72 -19 -70 -50 3 -50 17 0 32 6 35 15 10 26 24 17 24 -16 0 -18
-4 -28 -10 -24 -6 4 -19 -4 -30 -17 -23 -27 -25 -42 -6 -35 9 4 22 -7 35 -29
11 -19 27 -37 36 -40 21 -8 19 -24 -2 -24 -15 0 -16 -2 -3 -10 36 -23 56 -11
108 68 43 67 51 86 53 135 3 59 -23 127 -48 127 -7 0 -13 7 -13 15 0 8 -7 15
-16 15 -9 0 -24 9 -34 20 -9 10 -45 32 -81 47 -35 15 -70 33 -77 40 -21 20
-31 16 -49 -21z"/>
<path d="M4847 2999 c4 -13 8 -18 11 -10 2 7 -1 18 -6 23 -8 8 -9 4 -5 -13z"/>
<path d="M1110 2793 c0 -12 -4 -25 -10 -28 -5 -3 -10 -11 -10 -16 0 -6 5 -7
10 -4 14 9 13 -8 -2 -23 -9 -9 -9 -15 0 -24 17 -17 15 -28 -5 -28 -13 0 -14
-3 -5 -12 16 -16 35 3 35 36 0 14 3 26 7 26 3 0 7 7 7 15 0 8 -4 12 -9 9 -4
-3 -8 2 -8 10 0 8 5 18 10 21 6 3 10 1 10 -6 0 -7 3 -10 6 -6 3 3 1 14 -5 24
-6 10 -11 14 -11 8 0 -5 -5 -3 -10 5 -8 12 -10 11 -10 -7z"/>
<path d="M1075 2790 c-3 -5 -1 -10 4 -10 6 0 11 5 11 10 0 6 -2 10 -4 10 -3 0
-8 -4 -11 -10z"/>
<path d="M1170 2790 c0 -5 5 -10 11 -10 5 0 7 5 4 10 -3 6 -8 10 -11 10 -2 0
-4 -4 -4 -10z"/>
<path d="M1117 2633 c-6 -16 -16 -31 -22 -35 -17 -12 -1 -16 25 -6 18 7 21 11
11 17 -10 7 -11 13 -2 30 7 11 9 21 6 21 -3 0 -11 -12 -18 -27z"/>
<path d="M2410 2590 c0 -5 5 -10 11 -10 5 0 7 5 4 10 -3 6 -8 10 -11 10 -2 0
-4 -4 -4 -10z"/>
<path d="M1086 2531 c-3 -4 7 -19 22 -32 l27 -24 -23 26 c-18 20 -20 28 -10
32 9 4 9 6 1 6 -6 1 -14 -3 -17 -8z"/>
<path d="M4866 2513 c-6 -14 -5 -15 5 -6 7 7 10 15 7 18 -3 3 -9 -2 -12 -12z"/>
<path d="M1075 2489 c-4 -6 -5 -12 -2 -15 2 -3 7 2 10 11 7 17 1 20 -8 4z"/>
<path d="M4910 2110 c0 -5 5 -10 10 -10 6 0 10 5 10 10 0 6 -4 10 -10 10 -5 0
-10 -4 -10 -10z"/>
<path d="M1995 2060 c-3 -5 1 -10 9 -10 9 0 16 5 16 10 0 6 -4 10 -9 10 -6 0
-13 -4 -16 -10z"/>
<path d="M4910 2020 c0 -5 5 -10 11 -10 5 0 7 5 4 10 -3 6 -8 10 -11 10 -2 0
-4 -4 -4 -10z"/>
<path d="M5050 1870 c0 -5 5 -10 10 -10 6 0 10 5 10 10 0 6 -4 10 -10 10 -5 0
-10 -4 -10 -10z"/>
<path d="M4955 1824 c17 -15 30 -30 30 -33 0 -3 5 -14 11 -25 11 -18 11 -18
18 0 6 16 8 16 16 4 7 -11 10 -12 10 -2 0 7 4 11 9 7 5 -3 12 -1 16 5 3 5 -1
10 -9 10 -9 0 -42 14 -73 30 l-58 31 30 -27z"/>
<path d="M5030 1816 c0 -2 9 -6 20 -9 11 -3 18 -1 14 4 -5 9 -34 13 -34 5z"/>
<path d="M4965 1760 c-3 -5 -1 -10 4 -10 6 0 11 5 11 10 0 6 -2 10 -4 10 -3 0
-8 -4 -11 -10z"/>
<path d="M4990 1732 c0 -5 7 -15 15 -22 12 -10 13 -16 3 -29 -9 -12 -8 -12 7
1 19 17 19 18 -3 38 -12 12 -22 17 -22 12z"/>
<path d="M4981 1657 c2 -1 13 -9 24 -17 19 -14 19 -14 6 3 -7 9 -18 17 -24 17
-6 0 -8 -1 -6 -3z"/>
<path d="M2752 1330 c-12 -12 -22 -23 -22 -26 0 -7 58 25 65 36 11 18 -21 10
-43 -10z"/>
<path d="M3774 1244 l-21 -44 23 6 c38 10 18 -34 -47 -98 -32 -32 -54 -58 -51
-58 4 0 41 34 83 76 l77 76 -17 39 c-10 22 -20 41 -22 43 -2 2 -13 -16 -25
-40z"/>
<path d="M2590 1161 c0 -18 18 -21 30 -6 10 13 9 15 -9 15 -11 0 -21 -4 -21
-9z"/>
<path d="M3018 1123 c-10 -2 -18 -9 -18 -14 0 -14 16 -11 30 6 7 8 11 14 9 14
-2 -1 -12 -3 -21 -6z"/>
<path d="M2141 1008 c-15 -48 -17 -59 -25 -144 -5 -48 -3 -64 9 -74 8 -7 15
-21 15 -31 0 -11 7 -19 16 -19 12 0 15 -7 12 -25 -4 -20 -3 -23 8 -14 11 9 14
5 14 -20 0 -18 -4 -40 -9 -50 -7 -12 -5 -40 7 -87 9 -38 18 -60 20 -49 1 11 8
39 14 62 6 24 11 54 11 68 0 14 3 25 8 25 22 0 6 115 -43 295 -28 105 -41 119
-57 63z"/>
<path d="M3605 978 l-40 -43 43 40 c23 21 42 40 42 42 0 8 -9 0 -45 -39z"/>
<path d="M2225 950 c-3 -5 -1 -10 4 -10 6 0 11 5 11 10 0 6 -2 10 -4 10 -3 0
-8 -4 -11 -10z"/>
<path d="M3495 869 c-68 -69 -266 -229 -362 -291 -43 -28 -100 -69 -127 -91
-130 -109 -293 -115 -474 -17 -47 26 -56 27 -69 15 -8 -8 -19 -15 -24 -15 -6
0 -8 -4 -5 -9 4 -5 -4 -7 -16 -3 -14 3 -19 2 -14 -6 4 -7 2 -12 -3 -12 -6 0
-11 6 -11 14 0 10 -9 13 -31 11 -44 -6 -49 -15 -9 -15 18 0 30 -3 27 -7 -4 -3
-21 -6 -39 -5 -17 0 -45 -6 -61 -14 -16 -9 -26 -11 -23 -5 4 6 3 11 -2 11 -9
0 -44 -36 -57 -60 -8 -13 -7 -13 8 -1 23 18 27 12 14 -19 -22 -55 -18 -61 47
-65 22 -1 57 -5 77 -10 29 -6 43 -3 65 12 133 89 126 86 162 75 20 -6 43 -7
56 -2 16 6 51 -1 122 -25 98 -33 130 -38 231 -36 l52 1 35 73 c51 109 99 165
315 366 96 90 181 181 169 181 -2 0 -26 -23 -53 -51z"/>
<path d="M4770 578 c0 -15 18 -42 49 -72 47 -46 118 -136 107 -136 -2 0 20
-25 50 -55 30 -31 61 -69 69 -86 9 -16 22 -38 30 -47 8 -9 21 -26 29 -37 14
-19 15 -16 16 38 0 45 -6 68 -26 103 -14 24 -30 44 -35 44 -5 0 -9 5 -9 11 0
31 -170 196 -249 242 -31 18 -31 18 -31 -5z"/>
<path d="M2010 566 c0 -22 -40 -65 -80 -86 -21 -10 -40 -26 -43 -35 -21 -54
58 -62 146 -15 63 33 67 35 67 19 0 -6 9 -22 20 -36 43 -55 17 6 -36 84 -54
80 -74 98 -74 69z"/>
<path d="M4765 480 c23 -26 138 -110 151 -110 13 0 -44 46 -88 72 -21 12 -38
25 -38 29 0 5 -10 14 -22 20 l-23 12 20 -23z"/>
<path d="M4708 483 c7 -3 16 -2 19 1 4 3 -2 6 -13 5 -11 0 -14 -3 -6 -6z"/>
<path d="M4569 451 c-63 -36 -156 -109 -163 -128 -4 -9 13 2 37 24 24 22 65
53 93 68 87 50 109 65 94 64 -8 -1 -36 -13 -61 -28z"/>
<path d="M4865 310 c-3 -4 4 -10 15 -13 11 -3 22 -2 25 3 3 4 -4 10 -15 13
-11 3 -22 2 -25 -3z"/>
<path d="M4370 291 c-34 -36 -41 -54 -10 -24 19 18 32 34 29 36 -2 3 -11 -3
-19 -12z"/>
<path d="M4916 275 c4 -8 7 -15 9 -15 2 0 5 7 9 15 3 9 0 15 -9 15 -9 0 -12
-6 -9 -15z"/>
<path d="M4279 173 c-13 -16 -12 -17 4 -4 9 7 17 15 17 17 0 8 -8 3 -21 -13z"/>
</g>
</svg>
